<svg preserveAspectRatio="none" width="100%" height="100%" overflow="visible" style="display: block;" viewBox="0 0 16 16" fill="none" xmlns="http://www.w3.org/2000/svg">
<g id="Frame">
<path id="Vector" d="M2.61925 3.28597L3.5621 4.22882C2.59695 5.19396 2 6.52729 2 8.00006C2 9.4728 2.59695 10.8061 3.5621 11.7713L2.61925 12.7141C1.41283 11.5077 0.666667 9.84106 0.666667 8.00006C0.666667 6.15905 1.41283 4.49238 2.61925 3.28597ZM13.3807 3.28597C14.5872 4.49238 15.3333 6.15905 15.3333 8.00006C15.3333 9.84106 14.5872 11.5077 13.3807 12.7141L12.4379 11.7713C13.4031 10.8061 14 9.4728 14 8.00006C14 6.52763 13.4033 5.19457 12.4386 4.22948L13.3807 3.28597ZM8.66667 3.33338V7.3334H10.6667L7.33333 12.6667V8.66673H5.33333L8.66667 3.33338ZM4.50491 5.17162L5.44771 6.11443C4.96514 6.597 4.66667 7.26366 4.66667 8.00006C4.66667 8.7364 4.96514 9.40306 5.44771 9.88566L4.50491 10.8285C3.78105 10.1046 3.33333 9.1046 3.33333 8.00006C3.33333 6.89546 3.78105 5.89548 4.50491 5.17162ZM11.4957 5.17228C12.2192 5.89608 12.6667 6.8958 12.6667 8.00006C12.6667 9.1046 12.2189 10.1046 11.4951 10.8285L10.5523 9.88566C11.0349 9.40306 11.3333 8.7364 11.3333 8.00006C11.3333 7.264 11.0351 6.59762 10.5529 6.1151L11.4957 5.17228Z" fill="#F5F5F5"/>
</g>
</svg>