<svg preserveAspectRatio="none" width="100%" height="100%" overflow="visible" style="display: block;" viewBox="0 0 16 16" fill="none" xmlns="http://www.w3.org/2000/svg">
<g id="Frame">
<path id="Vector" d="M10.6667 10.6667C11.7713 10.6667 12.6667 11.5621 12.6667 12.6667C12.6667 13.7713 11.7713 14.6667 10.6667 14.6667C9.56207 14.6667 8.66667 13.7713 8.66667 12.6667C8.66667 11.5621 9.56207 10.6667 10.6667 10.6667ZM4 8C5.47276 8 6.66667 9.19393 6.66667 10.6667C6.66667 12.1394 5.47276 13.3333 4 13.3333C2.52724 13.3333 1.33333 12.1394 1.33333 10.6667C1.33333 9.19393 2.52724 8 4 8ZM9.66667 1.33333C11.6917 1.33333 13.3333 2.97495 13.3333 5C13.3333 7.02507 11.6917 8.66667 9.66667 8.66667C7.6416 8.66667 6 7.02507 6 5C6 2.97495 7.6416 1.33333 9.66667 1.33333Z" fill="#F5F5F5"/>
</g>
</svg>